<svg width="720" height="480" viewBox="0 0 720 480" fill="none" xmlns="http://www.w3.org/2000/svg">
  <rect width="720" height="480" rx="36" fill="url(#paint0_radial)"/>
  <g filter="url(#filter0_f)">
    <circle cx="520" cy="360" r="160" fill="url(#paint1_radial)" fill-opacity="0.75"/>
  </g>
  <g filter="url(#filter1_f)">
    <circle cx="200" cy="150" r="150" fill="url(#paint2_radial)" fill-opacity="0.85"/>
  </g>
  <rect x="150" y="120" width="420" height="240" rx="30" fill="rgba(8,20,40,0.68)" stroke="rgba(255,255,255,0.14)" stroke-width="1.5"/>
  <rect x="190" y="168" width="140" height="24" rx="12" fill="rgba(255,255,255,0.18)"/>
  <rect x="360" y="168" width="160" height="24" rx="12" fill="rgba(255,255,255,0.1)"/>
  <rect x="190" y="210" width="320" height="12" rx="6" fill="rgba(255,255,255,0.14)"/>
  <rect x="190" y="236" width="260" height="12" rx="6" fill="rgba(255,255,255,0.12)"/>
  <rect x="190" y="262" width="300" height="12" rx="6" fill="rgba(255,255,255,0.12)"/>
  <g opacity="0.9">
    <rect x="190" y="298" width="340" height="44" rx="22" fill="rgba(255,255,255,0.12)"/>
    <rect x="210" y="310" width="120" height="20" rx="10" fill="rgba(255,255,255,0.2)"/>
    <rect x="350" y="310" width="120" height="20" rx="10" fill="rgba(255,255,255,0.12)"/>
  </g>
  <g opacity="0.85">
    <circle cx="520" cy="252" r="34" fill="rgba(96,165,250,0.2)" stroke="rgba(255,255,255,0.2)" stroke-width="2"/>
    <path d="M510 251.5L517.5 259L532 244.5" stroke="url(#paint3_linear)" stroke-width="5" stroke-linecap="round" stroke-linejoin="round"/>
  </g>
  <g opacity="0.8">
    <circle cx="230" cy="358" r="26" fill="rgba(96,165,250,0.18)" stroke="rgba(255,255,255,0.2)" stroke-width="2"/>
    <circle cx="320" cy="358" r="26" fill="rgba(168,85,247,0.18)" stroke="rgba(255,255,255,0.2)" stroke-width="2"/>
    <circle cx="410" cy="358" r="26" fill="rgba(249,115,22,0.18)" stroke="rgba(255,255,255,0.2)" stroke-width="2"/>
  </g>
  <defs>
    <filter id="filter0_f" x="220" y="60" width="600" height="600" filterUnits="userSpaceOnUse" color-interpolation-filters="sRGB">
      <feGaussianBlur stdDeviation="80"/>
    </filter>
    <filter id="filter1_f" x="-40" y="-90" width="480" height="480" filterUnits="userSpaceOnUse" color-interpolation-filters="sRGB">
      <feGaussianBlur stdDeviation="70"/>
    </filter>
    <radialGradient id="paint0_radial" cx="0" cy="0" r="1" gradientUnits="userSpaceOnUse" gradientTransform="translate(520 70) rotate(130) scale(860 660)">
      <stop stop-color="#161D3B"/>
      <stop offset="0.55" stop-color="#070D1D"/>
      <stop offset="1" stop-color="#03060D"/>
    </radialGradient>
    <radialGradient id="paint1_radial" cx="0" cy="0" r="1" gradientUnits="userSpaceOnUse" gradientTransform="translate(520 360) scale(160)">
      <stop stop-color="#F97316"/>
      <stop offset="1" stop-color="#7C2D12" stop-opacity="0.1"/>
    </radialGradient>
    <radialGradient id="paint2_radial" cx="0" cy="0" r="1" gradientUnits="userSpaceOnUse" gradientTransform="translate(200 150) scale(150)">
      <stop stop-color="#60A5FA"/>
      <stop offset="1" stop-color="#0F172A" stop-opacity="0.1"/>
    </radialGradient>
    <linearGradient id="paint3_linear" x1="510" y1="252" x2="532" y2="252" gradientUnits="userSpaceOnUse">
      <stop stop-color="#60A5FA"/>
      <stop offset="1" stop-color="#22D3EE"/>
    </linearGradient>
  </defs>
</svg>
